<?xml version="1.0" encoding="utf-8"?>
<!-- Generator: Adobe Illustrator 16.0.0, SVG Export Plug-In . SVG Version: 6.00 Build 0)  -->
<!DOCTYPE svg PUBLIC "-//W3C//DTD SVG 1.1//EN" "http://www.w3.org/Graphics/SVG/1.1/DTD/svg11.dtd">
<svg version="1.1" xmlns="http://www.w3.org/2000/svg" xmlns:xlink="http://www.w3.org/1999/xlink" x="0px" y="0px"
	 width="201.453px" height="70.172px" viewBox="0 0 201.453 70.172" enable-background="new 0 0 201.453 70.172"
	 xml:space="preserve">
<g id="base_colors">
	<rect x="-185.072" y="-426.513" fill="#262718" width="82" height="82"/>
	<rect x="-56.438" y="-426.513" fill="#B39E42" width="82" height="82"/>
	<rect x="72.177" y="-426.513" fill="#301F25" width="82" height="82"/>
	<rect x="200.791" y="-426.513" fill="#DEDD99" width="82" height="82"/>
	<rect x="329.406" y="-426.513" fill="#15353D" width="82" height="82"/>
</g>
<g id="text" display="none">
	<rect x="-186.823" y="-262.438" display="inline" fill="#262718" width="600" height="60"/>
	<g display="inline">
		<text transform="matrix(1 0 0 1 -165.0449 -225.3286)" fill="#B39E42" font-family="'MyriadPro-Regular'" font-size="29">Lorem ipsum, dolor sit amet consectetur adipis</text>
	</g>
	<rect x="-186.823" y="-202.438" display="inline" fill="#B39E42" width="600" height="60"/>
	<g display="inline">
		<text transform="matrix(1 0 0 1 -165.0449 -165.3286)" fill="#262718" font-family="'MyriadPro-Regular'" font-size="29">Lorem ipsum, dolor sit amet consectetur adipis</text>
	</g>
	<rect x="-186.823" y="-142.438" display="inline" fill="#301F25" width="600" height="60"/>
	<g display="inline">
		<text transform="matrix(1 0 0 1 -165.0449 -105.3286)" fill="#B39E42" font-family="'MyriadPro-Regular'" font-size="29">Lorem ipsum, dolor sit amet consectetur adipis</text>
	</g>
	<rect x="-186.823" y="-82.438" display="inline" fill="#DEDD99" width="600" height="60"/>
	<g display="inline">
		<text transform="matrix(1 0 0 1 -165.0449 -45.3286)" fill="#262718" font-family="'MyriadPro-Regular'" font-size="29">Lorem ipsum, dolor sit amet consectetur adipis</text>
	</g>
	<rect x="-186.823" y="-22.438" display="inline" fill="#15353D" width="600" height="60"/>
	<g display="inline">
		<text transform="matrix(1 0 0 1 -165.0449 14.6714)" fill="#B39E42" font-family="'MyriadPro-Regular'" font-size="29">Lorem ipsum, dolor sit amet consectetur adipis</text>
	</g>
	<rect x="-186.823" y="37.562" display="inline" fill="#262718" width="600" height="60"/>
	<g display="inline">
		<text transform="matrix(1 0 0 1 -165.0449 74.6709)" fill="#DEDD99" font-family="'MyriadPro-Regular'" font-size="29">Lorem ipsum, dolor sit amet consectetur adipis</text>
	</g>
	<rect x="-186.823" y="97.562" display="inline" fill="#B39E42" width="600" height="60"/>
	<g display="inline">
		<text transform="matrix(1 0 0 1 -165.0449 134.6709)" fill="#301F25" font-family="'MyriadPro-Regular'" font-size="29">Lorem ipsum, dolor sit amet consectetur adipis</text>
	</g>
	<rect x="-186.823" y="157.562" display="inline" fill="#301F25" width="600" height="60"/>
	<g display="inline">
		<text transform="matrix(1 0 0 1 -165.0449 194.6709)" fill="#DEDD99" font-family="'MyriadPro-Regular'" font-size="29">Lorem ipsum, dolor sit amet consectetur adipis</text>
	</g>
	<rect x="-186.823" y="217.562" display="inline" fill="#DEDD99" width="600" height="60"/>
	<g display="inline">
		<text transform="matrix(1 0 0 1 -165.0449 254.6709)" fill="#301F25" font-family="'MyriadPro-Regular'" font-size="29">Lorem ipsum, dolor sit amet consectetur adipis</text>
	</g>
	<rect x="-186.823" y="277.562" display="inline" fill="#15353D" width="600" height="60"/>
	<g display="inline">
		<text transform="matrix(1 0 0 1 -165.0449 314.6709)" fill="#DEDD99" font-family="'MyriadPro-Regular'" font-size="29">Lorem ipsum, dolor sit amet consectetur adipis</text>
	</g>
</g>
<g id="logo_text" display="none">
	<g display="inline">
		<text transform="matrix(1 0 0 1 -24.8213 55.1709)" fill="#DEDD99" font-family="'Myriad-Bold'" font-size="60">microChat</text>
	</g>
</g>
<g id="logo_1" display="none">
	<g display="inline">
		<path fill-rule="evenodd" clip-rule="evenodd" fill="#B39E42" d="M323.177,79.562c0,4.4-3.6,8-8,8h-404c-4.4,0-8-3.6-8-8v-84
			c0-4.4,3.6-8,8-8h404c4.4,0,8,3.6,8,8V79.562z"/>
	</g>
	<g display="inline">
		<path fill-rule="evenodd" clip-rule="evenodd" fill="#301F25" d="M321.177,79.562c0,3.3-2.7,6-6,6h-404c-3.3,0-6-2.7-6-6v-84
			c0-3.3,2.7-6,6-6h404c3.3,0,6,2.7,6,6V79.562z"/>
	</g>
	<g display="inline">
		<text transform="matrix(1 0 0 1 -24.8213 55.1709)" fill="#DEDD99" font-family="'Myriad-Bold'" font-size="60">microChat</text>
	</g>
</g>
<g id="logo_2" display="none">
	<g display="inline">
		<text transform="matrix(1 0 0 1 0 55.1719)"><tspan x="0" y="0" fill="#301F25" font-family="'Microsoft-Yi-Baiti'" font-size="60">micr</tspan><tspan x="84.814" y="0" fill="#301F25" font-family="'MyriadPro-Regular'" font-size="60">Chat</tspan></text>
	</g>
	
		<text transform="matrix(1 0 0 1 94.1772 46.1719)" display="inline" fill="#301F25" font-family="'Microsoft-Yi-Baiti'" font-size="60">o</text>
</g>
<g id="logo_2_-_outline">
	<g>
		<path fill="#301F25" d="M33.75,55.172h-2.344V40.348c0-2.168-0.337-3.73-1.011-4.688c-0.674-0.956-1.86-1.436-3.56-1.436
			c-1.25,0-2.466,0.386-3.647,1.157c-1.182,0.771-2.329,1.86-3.442,3.267v16.523h-2.344V40.348c0-1.073-0.073-2.002-0.22-2.783
			c-0.146-0.78-0.396-1.416-0.747-1.904c-0.352-0.487-0.816-0.85-1.392-1.084c-0.576-0.234-1.285-0.352-2.124-0.352
			c-1.23,0-2.402,0.386-3.516,1.157s-2.237,1.86-3.369,3.267v16.523H3.691V32.467h2.344v3.369c0.781-0.879,1.519-1.577,2.212-2.095
			c0.693-0.518,1.348-0.912,1.963-1.187c0.615-0.273,1.201-0.454,1.758-0.542s1.088-0.132,1.597-0.132
			c1.465,0,2.714,0.342,3.75,1.025c1.035,0.685,1.787,1.729,2.256,3.135c0.586-0.82,1.206-1.499,1.86-2.036
			c0.654-0.537,1.318-0.962,1.992-1.274c0.674-0.312,1.352-0.532,2.036-0.659c0.684-0.127,1.348-0.19,1.992-0.19
			c4.199,0,6.299,2.754,6.299,8.262V55.172z"/>
		<path fill="#301F25" d="M43.682,55.172h-2.344V32.467h2.344V55.172z M43.711,26.754h-2.344v-3.662h2.344V26.754z"/>
		<path fill="#301F25" d="M60.088,55.758c-1.504,0-2.876-0.264-4.116-0.791c-1.241-0.527-2.305-1.299-3.193-2.314
			c-0.889-1.015-1.578-2.266-2.065-3.75c-0.488-1.483-0.732-3.183-0.732-5.098c0-1.875,0.239-3.555,0.718-5.039
			c0.479-1.483,1.162-2.734,2.051-3.75c0.889-1.015,1.953-1.792,3.193-2.329c1.24-0.537,2.622-0.806,4.146-0.806
			c1.094,0,2.114,0.146,3.062,0.439c0.947,0.293,1.787,0.723,2.52,1.289c0.732,0.567,1.348,1.271,1.846,2.109
			c0.498,0.84,0.845,1.798,1.04,2.871H66.27c-0.098-0.703-0.318-1.328-0.659-1.875c-0.342-0.546-0.787-1.006-1.333-1.377
			c-0.547-0.37-1.177-0.649-1.89-0.835c-0.713-0.186-1.479-0.278-2.3-0.278c-1.153,0-2.208,0.2-3.164,0.601
			c-0.957,0.4-1.777,1.001-2.461,1.802c-0.684,0.802-1.211,1.802-1.582,3.003c-0.371,1.201-0.557,2.593-0.557,4.175
			c0,1.602,0.186,3.003,0.557,4.204c0.371,1.201,0.898,2.202,1.582,3.003c0.684,0.802,1.504,1.401,2.461,1.802
			c0.957,0.4,2.011,0.601,3.164,0.601c0.762,0,1.494-0.093,2.197-0.278s1.333-0.459,1.89-0.82s1.021-0.811,1.392-1.348
			c0.371-0.537,0.605-1.167,0.703-1.89h2.285c-0.215,1.095-0.571,2.056-1.069,2.886s-1.113,1.528-1.846,2.095
			c-0.732,0.567-1.572,0.991-2.52,1.274C62.172,55.616,61.162,55.758,60.088,55.758z"/>
		<path fill="#301F25" d="M84.111,34.283c-0.215-0.039-0.45-0.059-0.703-0.059c-0.234,0-0.518,0-0.85,0
			c-0.664,0-1.309,0.137-1.934,0.41c-0.625,0.274-1.221,0.63-1.787,1.069c-0.567,0.439-1.094,0.938-1.582,1.494
			c-0.488,0.557-0.908,1.128-1.26,1.714v16.26h-2.344V32.467h2.344v3.135c0.664-0.78,1.323-1.416,1.978-1.904
			c0.654-0.487,1.289-0.868,1.904-1.143c0.615-0.273,1.206-0.454,1.772-0.542c0.566-0.088,1.084-0.132,1.553-0.132
			c0.156,0,0.303,0.005,0.439,0.015c0.136,0.01,0.293,0.025,0.469,0.044V34.283z"/>
		<path fill="#301F25" d="M117.632,53.853c-1.92,0.959-5.759,1.92-10.679,1.92c-11.399,0-19.979-7.2-19.979-20.46
			c0-12.659,8.58-21.239,21.119-21.239c5.039,0,8.22,1.08,9.599,1.8l-1.26,4.26c-1.98-0.961-4.799-1.681-8.16-1.681
			c-9.479,0-15.779,6.06-15.779,16.68c0,9.899,5.7,16.259,15.54,16.259c3.179,0,6.419-0.66,8.519-1.68L117.632,53.853z"/>
		<path fill="#301F25" d="M123.994,12.574h5.279v18.119h0.119c0.84-1.5,2.16-2.819,3.781-3.719c1.559-0.9,3.42-1.5,5.398-1.5
			c3.9,0,10.141,2.399,10.141,12.419v17.279h-5.279V38.493c0-4.681-1.74-8.641-6.721-8.641c-3.42,0-6.119,2.4-7.08,5.28
			c-0.299,0.72-0.359,1.5-0.359,2.52v17.52h-5.279V12.574z"/>
		<path fill="#301F25" d="M173.373,55.172l-0.42-3.659h-0.18c-1.621,2.279-4.74,4.319-8.881,4.319c-5.879,0-8.879-4.14-8.879-8.34
			c0-7.02,6.24-10.859,17.459-10.8v-0.6c0-2.4-0.66-6.72-6.6-6.72c-2.699,0-5.52,0.84-7.561,2.159l-1.199-3.479
			c2.4-1.56,5.879-2.579,9.539-2.579c8.881,0,11.041,6.059,11.041,11.879v10.859c0,2.52,0.119,4.98,0.479,6.96H173.373z
			 M172.591,40.353c-5.76-0.12-12.299,0.9-12.299,6.539c0,3.42,2.279,5.041,4.98,5.041c3.779,0,6.18-2.4,7.02-4.86
			c0.18-0.54,0.299-1.14,0.299-1.681V40.353z"/>
		<path fill="#301F25" d="M192.332,17.794v8.339h7.561v4.021h-7.561v15.659c0,3.6,1.021,5.64,3.961,5.64
			c1.379,0,2.4-0.18,3.059-0.36l0.24,3.96c-1.02,0.42-2.639,0.721-4.68,0.721c-2.459,0-4.439-0.781-5.699-2.221
			c-1.5-1.56-2.039-4.14-2.039-7.56V30.153h-4.5v-4.021h4.5v-6.96L192.332,17.794z"/>
	</g>
	<g>
		<path fill="#301F25" d="M106.628,22.881c1.543,0,2.939,0.269,4.189,0.806s2.314,1.318,3.193,2.344s1.553,2.275,2.021,3.75
			s0.703,3.14,0.703,4.995c0,1.895-0.239,3.585-0.718,5.068c-0.479,1.484-1.157,2.739-2.036,3.765s-1.943,1.807-3.193,2.344
			s-2.637,0.806-4.16,0.806s-2.905-0.264-4.146-0.791s-2.3-1.304-3.179-2.329s-1.563-2.28-2.051-3.765
			c-0.488-1.483-0.732-3.183-0.732-5.098c0-1.875,0.239-3.55,0.718-5.024s1.157-2.72,2.036-3.735
			c0.879-1.015,1.943-1.792,3.193-2.329S105.105,22.881,106.628,22.881z M106.628,44.414c1.152,0,2.202-0.2,3.149-0.601
			s1.763-1.006,2.446-1.816s1.216-1.816,1.597-3.018s0.571-2.603,0.571-4.204c0-1.582-0.19-2.974-0.571-4.175
			s-0.913-2.197-1.597-2.988s-1.499-1.387-2.446-1.787s-1.997-0.601-3.149-0.601c-1.172,0-2.231,0.2-3.179,0.601
			s-1.763,0.996-2.446,1.787s-1.211,1.787-1.582,2.988s-0.557,2.593-0.557,4.175c0,1.602,0.186,3.003,0.557,4.204
			s0.898,2.207,1.582,3.018s1.499,1.416,2.446,1.816S105.457,44.414,106.628,44.414z"/>
	</g>
</g>
</svg>
