<?xml version="1.0" encoding="utf-8"?>
<!-- Generator: Adobe Illustrator 16.0.0, SVG Export Plug-In . SVG Version: 6.00 Build 0)  -->
<!DOCTYPE svg PUBLIC "-//W3C//DTD SVG 1.1//EN" "http://www.w3.org/Graphics/SVG/1.1/DTD/svg11.dtd">
<svg version="1.1" xmlns="http://www.w3.org/2000/svg" xmlns:xlink="http://www.w3.org/1999/xlink" x="0px" y="0px" width="420px"
	 height="100px" viewBox="0 0 420 100" enable-background="new 0 0 420 100" xml:space="preserve">
<g id="base_colors" display="none">
	<rect x="-88.25" y="-414.074" display="inline" fill="#262718" width="82" height="82"/>
	<rect x="40.385" y="-414.074" display="inline" fill="#B39E42" width="82" height="82"/>
	<rect x="169" y="-414.074" display="inline" fill="#301F25" width="82" height="82"/>
	<rect x="297.613" y="-414.074" display="inline" fill="#DEDD99" width="82" height="82"/>
	<rect x="426.229" y="-414.074" display="inline" fill="#15353D" width="82" height="82"/>
</g>
<g id="text" display="none">
	<rect x="-90" y="-250" display="inline" fill="#262718" width="600" height="60"/>
	<g display="inline">
		<text transform="matrix(1 0 0 1 -68.2222 -212.8901)" fill="#B39E42" font-family="'MyriadPro-Regular'" font-size="29">Lorem ipsum, dolor sit amet consectetur adipis</text>
	</g>
	<rect x="-90" y="-190" display="inline" fill="#B39E42" width="600" height="60"/>
	<g display="inline">
		<text transform="matrix(1 0 0 1 -68.2222 -152.8901)" fill="#262718" font-family="'MyriadPro-Regular'" font-size="29">Lorem ipsum, dolor sit amet consectetur adipis</text>
	</g>
	<rect x="-90" y="-130" display="inline" fill="#301F25" width="600" height="60"/>
	<g display="inline">
		<text transform="matrix(1 0 0 1 -68.2222 -92.8901)" fill="#B39E42" font-family="'MyriadPro-Regular'" font-size="29">Lorem ipsum, dolor sit amet consectetur adipis</text>
	</g>
	<rect x="-90" y="-70" display="inline" fill="#DEDD99" width="600" height="60"/>
	<g display="inline">
		<text transform="matrix(1 0 0 1 -68.2222 -32.8901)" fill="#262718" font-family="'MyriadPro-Regular'" font-size="29">Lorem ipsum, dolor sit amet consectetur adipis</text>
	</g>
	<rect x="-90" y="-10" display="inline" fill="#15353D" width="600" height="60"/>
	<g display="inline">
		<text transform="matrix(1 0 0 1 -68.2222 27.1099)" fill="#B39E42" font-family="'MyriadPro-Regular'" font-size="29">Lorem ipsum, dolor sit amet consectetur adipis</text>
	</g>
	<rect x="-90" y="50" display="inline" fill="#262718" width="600" height="60"/>
	<g display="inline">
		<text transform="matrix(1 0 0 1 -68.2222 87.1094)" fill="#DEDD99" font-family="'MyriadPro-Regular'" font-size="29">Lorem ipsum, dolor sit amet consectetur adipis</text>
	</g>
	<rect x="-90" y="110" display="inline" fill="#B39E42" width="600" height="60"/>
	<g display="inline">
		<text transform="matrix(1 0 0 1 -68.2222 147.1094)" fill="#301F25" font-family="'MyriadPro-Regular'" font-size="29">Lorem ipsum, dolor sit amet consectetur adipis</text>
	</g>
	<rect x="-90" y="170" display="inline" fill="#301F25" width="600" height="60"/>
	<g display="inline">
		<text transform="matrix(1 0 0 1 -68.2222 207.1094)" fill="#DEDD99" font-family="'MyriadPro-Regular'" font-size="29">Lorem ipsum, dolor sit amet consectetur adipis</text>
	</g>
	<rect x="-90" y="230" display="inline" fill="#DEDD99" width="600" height="60"/>
	<g display="inline">
		<text transform="matrix(1 0 0 1 -68.2222 267.1094)" fill="#301F25" font-family="'MyriadPro-Regular'" font-size="29">Lorem ipsum, dolor sit amet consectetur adipis</text>
	</g>
	<rect x="-90" y="290" display="inline" fill="#15353D" width="600" height="60"/>
	<g display="inline">
		<text transform="matrix(1 0 0 1 -68.2222 327.1094)" fill="#DEDD99" font-family="'MyriadPro-Regular'" font-size="29">Lorem ipsum, dolor sit amet consectetur adipis</text>
	</g>
</g>
<g id="logo_text" display="none">
	<g display="inline">
		<text transform="matrix(1 0 0 1 72.0015 67.6094)" fill="#DEDD99" font-family="'Myriad-Bold'" font-size="60">microChat</text>
	</g>
</g>
<g id="logo_1">
	<g>
		<path fill-rule="evenodd" clip-rule="evenodd" fill="#B39E42" d="M420,92c0,4.4-3.6,8-8,8H8c-4.4,0-8-3.6-8-8V8c0-4.4,3.6-8,8-8
			h404c4.4,0,8,3.6,8,8V92z"/>
	</g>
	<g>
		<path fill-rule="evenodd" clip-rule="evenodd" fill="#301F25" d="M418,92c0,3.3-2.7,6-6,6H8c-3.3,0-6-2.7-6-6V8c0-3.3,2.7-6,6-6
			h404c3.3,0,6,2.7,6,6V92z"/>
	</g>
	<g>
		<text transform="matrix(1 0 0 1 72.0015 67.6094)" fill="#DEDD99" font-family="'Myriad-Bold'" font-size="60">microChat</text>
	</g>
</g>
<g id="logo_2" display="none">
	<g display="inline">
		<text transform="matrix(1 0 0 1 72.0015 67.6094)" fill="#301F25" font-family="'Myriad-Bold'" font-size="60">microChat</text>
	</g>
	<g display="inline">
		<g>
			<path fill="none" stroke="#B39E42" stroke-width="2" stroke-miterlimit="10" d="M75.661,47.631c0-3.66-0.12-6.721-0.24-9.36h7.74
				l0.36,4.021h0.18c1.26-1.92,3.9-4.681,8.879-4.681c3.84,0,6.78,1.979,8.04,5.04h0.12c1.14-1.561,2.4-2.76,3.84-3.6
				c1.62-0.9,3.42-1.44,5.58-1.44c5.64,0,9.9,3.96,9.9,12.72v17.279h-8.88V51.71c0-4.26-1.38-6.72-4.32-6.72
				c-2.16,0-3.6,1.439-4.26,3.18c-0.18,0.66-0.3,1.561-0.3,2.28v17.159h-8.88V51.17c0-3.66-1.32-6.18-4.26-6.18
				c-2.34,0-3.72,1.8-4.26,3.24c-0.3,0.72-0.36,1.56-0.36,2.34v17.039h-8.88V47.631z"/>
			<path fill="none" stroke="#B39E42" stroke-width="2" stroke-miterlimit="10" d="M131.76,34.431c-3.06,0-5.04-2.159-5.04-4.86
				c0-2.759,2.04-4.859,5.16-4.859c3.12,0,5.04,2.1,5.1,4.859c0,2.701-1.98,4.86-5.16,4.86H131.76z M127.26,67.609V38.271h9.12
				v29.339H127.26z"/>
			<path fill="none" stroke="#B39E42" stroke-width="2" stroke-miterlimit="10" d="M165.718,66.89c-1.62,0.779-4.68,1.38-8.159,1.38
				c-9.48,0-15.54-5.82-15.54-15.06c0-8.579,5.88-15.6,16.799-15.6c2.399,0,5.04,0.421,6.96,1.14l-1.44,6.78
				c-1.08-0.479-2.7-0.899-5.1-0.899c-4.8,0-7.92,3.42-7.86,8.219c0,5.4,3.6,8.28,8.04,8.28c2.16,0,3.84-0.36,5.22-0.96
				L165.718,66.89z"/>
			<path fill="none" stroke="#B39E42" stroke-width="2" stroke-miterlimit="10" d="M170.819,47.93c0-4.319-0.06-7.139-0.24-9.659
				h7.8l0.36,5.46h0.24c1.5-4.32,5.039-6.12,7.919-6.12c0.84,0,1.261,0.06,1.92,0.181v8.579c-0.779-0.12-1.5-0.239-2.52-0.239
				c-3.359,0-5.64,1.739-6.24,4.619c-0.119,0.6-0.18,1.26-0.18,2.04v14.819h-9.119L170.819,47.93z"/>
			<path fill="none" stroke="#B39E42" stroke-width="2" stroke-miterlimit="10" d="M206.638,68.27c-8.579,0-15.18-5.64-15.18-15.119
				c0-9.48,6.24-15.54,15.72-15.54c8.939,0,14.939,6.181,14.939,15.06c0,10.68-7.619,15.6-15.418,15.6H206.638z M206.818,61.729
				c3.601,0,5.821-3.54,5.821-8.819c0-4.32-1.68-8.76-5.821-8.76c-4.319,0-5.999,4.439-5.999,8.819c0,4.979,2.1,8.76,5.939,8.76
				H206.818z"/>
			<path fill="none" stroke="#B39E42" stroke-width="2" stroke-miterlimit="10" d="M257.697,66.529
				c-1.619,0.78-5.459,1.74-10.318,1.74c-13.98,0-21.18-8.76-21.18-20.34c0-13.799,9.84-21.418,22.078-21.418
				c4.74,0,8.34,0.96,9.961,1.799l-1.92,7.2c-1.801-0.78-4.381-1.5-7.68-1.5c-7.201,0-12.84,4.38-12.84,13.439
				c0,8.1,4.799,13.199,12.898,13.199c2.82,0,5.82-0.54,7.68-1.319L257.697,66.529z"/>
			<path fill="none" stroke="#B39E42" stroke-width="2" stroke-miterlimit="10" d="M263.279,25.011h9.119v16.799h0.119
				c0.961-1.32,2.16-2.34,3.6-3.061c1.381-0.719,3.061-1.14,4.74-1.14c5.82,0,10.26,4.021,10.26,12.899v17.1h-9.119V51.471
				c0-3.84-1.32-6.48-4.74-6.48c-2.4,0-3.9,1.561-4.561,3.24c-0.238,0.539-0.299,1.32-0.299,1.979v17.399h-9.119V25.011z"/>
			<path fill="none" stroke="#B39E42" stroke-width="2" stroke-miterlimit="10" d="M322.857,60.529c0,2.76,0.121,5.46,0.48,7.08
				h-8.221l-0.539-2.939h-0.18c-1.92,2.34-4.92,3.6-8.4,3.6c-5.939,0-9.479-4.32-9.479-9c0-7.619,6.84-11.219,17.219-11.219v-0.36
				c0-1.56-0.84-3.78-5.34-3.78c-3,0-6.18,1.02-8.1,2.16l-1.68-5.82c2.039-1.14,6.059-2.64,11.398-2.64
				c9.779,0,12.84,5.76,12.84,12.659V60.529z M314.037,53.75c-4.799,0-8.52,1.14-8.52,4.619c0,2.341,1.561,3.48,3.602,3.48
				c2.219,0,4.139-1.5,4.738-3.359c0.121-0.48,0.18-1.021,0.18-1.561V53.75z"/>
			<path fill="none" stroke="#B39E42" stroke-width="2" stroke-miterlimit="10" d="M339.838,30.291v7.979h6.541v6.72h-6.541v10.68
				c0,3.54,0.9,5.16,3.6,5.16c1.262,0,1.861-0.061,2.701-0.24l0.059,6.899c-1.139,0.42-3.359,0.78-5.879,0.78
				c-2.939,0-5.4-1.021-6.9-2.521c-1.68-1.739-2.52-4.56-2.52-8.699V44.99h-3.9v-6.72h3.9v-5.52L339.838,30.291z"/>
		</g>
	</g>
</g>
</svg>
